<?xml version="1.0" encoding="UTF-8" standalone="no"?>
<svg
   xmlns:dc="http://purl.org/dc/elements/1.1/"
   xmlns:cc="http://creativecommons.org/ns#"
   xmlns:rdf="http://www.w3.org/1999/02/22-rdf-syntax-ns#"
   xmlns:svg="http://www.w3.org/2000/svg"
   xmlns="http://www.w3.org/2000/svg"
   xmlns:sodipodi="http://sodipodi.sourceforge.net/DTD/sodipodi-0.dtd"
   xmlns:inkscape="http://www.inkscape.org/namespaces/inkscape"
   width="16"
   height="16"
   version="1.1"
   viewBox="0 0 16 16"
   id="svg4"
   sodipodi:docname="icon_skill_user.svg"
   inkscape:version="0.92.1 r15371">
  <metadata
     id="metadata10">
    <rdf:RDF>
      <cc:Work
         rdf:about="">
        <dc:format>image/svg+xml</dc:format>
        <dc:type
           rdf:resource="http://purl.org/dc/dcmitype/StillImage" />
        <dc:title />
      </cc:Work>
    </rdf:RDF>
  </metadata>
  <defs
     id="defs8">
    <inkscape:perspective
       sodipodi:type="inkscape:persp3d"
       inkscape:vp_x="-0.093951133 : 7.9838709 : 1"
       inkscape:vp_y="0 : 931.01641 : 0"
       inkscape:vp_z="19.146792 : 7.9838709 : 1"
       inkscape:persp3d-origin="9.5264202 : 5.5011605 : 1"
       id="perspective818" />
  </defs>
  <sodipodi:namedview
     pagecolor="#ffffff"
     bordercolor="#666666"
     borderopacity="1"
     objecttolerance="10"
     gridtolerance="10"
     guidetolerance="10"
     inkscape:pageopacity="0"
     inkscape:pageshadow="2"
     inkscape:window-width="1920"
     inkscape:window-height="1017"
     id="namedview6"
     showgrid="false"
     inkscape:zoom="32"
     inkscape:cx="-2.1585863"
     inkscape:cy="11.336825"
     inkscape:window-x="-8"
     inkscape:window-y="-8"
     inkscape:window-maximized="1"
     inkscape:current-layer="svg4" />
  <path
     d="m 10.653426,1.1016949 c -0.543583,0 -0.981179,0.44599 -0.981179,1 v 3 c 0,0.55401 0.437596,1 0.981179,1 h 0.981179 v 0.99023 c -0.10612,0.00358 -0.210969,0.024685 -0.310455,0.0625 l -2.0122018,0.68359 -0.6707242,-2.0508 C 8.5079512,5.3586372 8.1104566,5.0733726 7.6696311,5.0899449 7.009862,5.1144039 6.5615622,5.7825469 6.7785243,6.4180449 l 0.981179,3 C 7.9309561,9.9424519 8.4871,10.225862 9.0014836,10.050855 L 10.653397,9.4903049 v 0.6113301 c 0,0.04088 0.01836,0.07566 0.023,0.11523 l 0.06473,4.103547 c 0.124469,0.86133 1.425091,1.091211 1.57911,0.130202 l -0.08582,-2.888049 c 0,0 0.243716,-0.262178 0.462689,0.171812 0.297669,0.589962 0.721744,2.240958 1.003291,2.814488 0.218253,0.445383 0.724693,0.659342 1.18811,0.50195 v 0 C 15.572901,14.689237 14.783392,12.8874 14.783392,12.8874 v 0 l -0.665239,-1.959675 c 0.287338,-0.203064 0.459928,-0.47227 0.459928,-0.82617 v -1.0000001 0 0 0 c 0,0 0.0029,-0.4585086 -0.05876,-1.130589 C 14.486812,7.6167661 14.112466,7.3727813 14.112466,7.3727813 L 13.596931,7.1015949 v -1 h 0.981179 c 0.543583,0 0.981179,-0.44599 0.981179,-1 v -3 c 0,-0.55401 -0.437596,-1 -0.981179,-1 z m 0,2 h 0.981179 v 2 h -0.981179 z"
     id="path2"
     style="fill:#ff4100;fill-opacity:0.99607843;stroke-width:0.99054486"
     inkscape:connector-curvature="0"
     sodipodi:nodetypes="csssccccccccccsccccsccccccsccccscccsssccccccc" />
  <path
     style="fill:#ff4000;fill-opacity:0.99607843;stroke-width:1.14586031"
     id="path872"
     d="M 0.47353194,2.4369211 C 0.562459,2.3083632 0.53359961,1.5711355 0.64633744,1.4587901 0.76320873,1.3399663 1.1425589,0.82168994 1.2768746,0.71907859 1.4577674,0.57994733 1.5566297,0.87180404 1.7617881,0.76355374 1.9468233,0.6615129 2.2996633,0.89093684 2.5066898,0.83001514 2.5859209,0.80551234 2.6479087,0.79326044 2.7283404,0.77463154 2.890456,0.74207233 3.0513357,0.7019609 3.2154891,0.67712272 c 0.1636396,-0.0203073 0.3289311,0.003355 0.4912492,0.0245027 0.092204,0.0203073 0.1936925,0.0245027 0.2787112,0.0644464 0.010544,0.00335 0.1626761,0.1379564 0.1727413,0.1434948 0.1148075,0.11597068 -0.00332,0.16078118 0.052404,0.27537568 0.193982,0.1080823 0.4755267,-0.050182 0.5080237,-0.053873 0.3561303,-0.17501328 0.433798,0.4616673 0.6354906,0.4906851 0,0 0.1893983,0.1406417 0.1532477,0.2370099 L 5.6874353,2.123919 c 0.1388342,0.1456767 0.2791662,0.2443608 0.2791662,0.2443608 0,0 0.6076971,-0.1371172 1.044265,0.4595359 -0.031359,0.036755 0.127519,0.00335 0.3620426,0.7169705 C 7.290663,3.9576638 6.8797373,4.6187804 6.8001177,4.6966201 6.4454165,5.077645 5.7320742,5.5358547 5.645037,5.6059575 5.5658851,5.6660406 5.1566502,6.0340085 4.6869973,6.1541749 4.1167864,6.3565274 3.3063219,6.3157951 3.3063219,6.3157951 2.5270338,6.2231528 1.7287389,5.8182962 1.7287389,5.8182962 c 0,0 -0.6709128,-0.3051321 -0.6994236,-0.456817 0,0 -0.15342212,-0.1626274 -0.14932547,-0.6986938 C 0.88329409,4.2298676 1.0765145,4.0100604 1.1513313,3.9243495 1.183285,3.8875949 1.7184017,3.5135683 1.750094,3.4767968 1.9601815,3.2348864 2.6014618,3.1275925 2.6014618,3.1275925 v 0 l 0.643211,-0.028699 C 4.0049535,2.6013607 3.5392825,2.2387636 3.5392825,2.2387636 3.4252403,1.8932516 3.6385457,1.7028148 3.6385457,1.7028148 3.4104631,1.1968571 3.2177407,1.3368778 3.2521629,1.3152445 3.2298182,1.1957494 3.0304207,1.2504616 2.9973868,1.1398452 c -0.024277,-0.076698 -0.5103627,-0.00335 -0.5103627,-0.00335 0,0 -0.1289087,0.115467 -0.230225,0.097509 0.098137,-0.2007128 -0.1941384,-0.024507 -0.1941384,-0.024507 l 0.090274,0.4321123 c 0,0 -0.3062189,-0.080894 -0.3924471,-0.02853 C 1.5401843,1.6046811 1.4347291,1.5845482 1.3158167,1.7023644 1.2060951,1.8104467 0.96110685,1.9450971 0.88024877,2.0727655 Z"
     inkscape:connector-curvature="0"
     sodipodi:nodetypes="ccccccccccccccccccccccccsccccccccccccccccc" />
  <path
     style="fill:#ff642d;fill-opacity:0.99607843;stroke-width:1.26096261"
     id="path874"
     d="M 2.9204017,3.8666327 C 3.3810752,3.0789219 4.5779386,3.0580605 4.6464942,3.0362427 5.7848109,2.8791536 6.0739918,3.3752428 6.1152535,3.3617828 6.1958118,3.5980037 6.0415823,4.1039782 6.0415823,4.1039782 5.9495142,4.6436864 5.466149,4.8713649 5.466149,4.8713649 5.4256732,4.8831129 4.9864176,5.164279 4.2059859,5.1185955 4.135606,5.1389024 3.4436355,4.9772825 3.072493,4.4656186 c 0,0 -0.1405813,-0.4046889 -0.1520911,-0.5987844 z"
     inkscape:connector-curvature="0"
     sodipodi:nodetypes="cccccccc" />
  <path
     style="fill:#ffffff;fill-opacity:0.99607843;stroke-width:2.80502033"
     id="path876"
     d="M 4.0457594,4.6862314 C 3.7833672,4.4573782 3.7141939,4.0101611 3.7232694,3.9522093 3.7767285,3.6338187 4.0195931,3.4509006 4.0289355,3.4329596 4.2848486,3.319003 4.796544,3.3149749 4.796544,3.3149749 c 0.3024373,0.021315 0.6630282,0.1544039 0.6630282,0.1544039 0.2559011,0.069985 0.3666145,0.4034638 0.3666145,0.4034638 -0.021243,0.059915 0.021693,0.5462199 -0.5708858,0.8288461 0,0 -0.5050573,0.1988283 -1.2095349,-0.021315 z"
     inkscape:connector-curvature="0"
     sodipodi:nodetypes="cccccccc" />
</svg>
