<?xml version="1.0" encoding="UTF-8" standalone="no"?>
<!-- Created with Inkscape (http://www.inkscape.org/) -->

<svg
   xmlns:dc="http://purl.org/dc/elements/1.1/"
   xmlns:cc="http://creativecommons.org/ns#"
   xmlns:rdf="http://www.w3.org/1999/02/22-rdf-syntax-ns#"
   xmlns:svg="http://www.w3.org/2000/svg"
   xmlns="http://www.w3.org/2000/svg"
   xmlns:sodipodi="http://sodipodi.sourceforge.net/DTD/sodipodi-0.dtd"
   xmlns:inkscape="http://www.inkscape.org/namespaces/inkscape"
   width="16"
   height="16"
   viewBox="0 0 4.2333332 4.2333332"
   version="1.1"
   id="svg895"
   inkscape:version="0.92.1 r15371"
   sodipodi:docname="icon_skill.svg">
  <defs
     id="defs889" />
  <sodipodi:namedview
     id="base"
     pagecolor="#ffffff"
     bordercolor="#666666"
     borderopacity="1.0"
     inkscape:pageopacity="0.0"
     inkscape:pageshadow="2"
     inkscape:zoom="31.678384"
     inkscape:cx="8.6186446"
     inkscape:cy="6.6933215"
     inkscape:document-units="mm"
     inkscape:current-layer="layer1"
     showgrid="false"
     inkscape:window-width="1920"
     inkscape:window-height="1017"
     inkscape:window-x="-8"
     inkscape:window-y="-8"
     inkscape:window-maximized="1"
     units="px" />
  <metadata
     id="metadata892">
    <rdf:RDF>
      <cc:Work
         rdf:about="">
        <dc:format>image/svg+xml</dc:format>
        <dc:type
           rdf:resource="http://purl.org/dc/dcmitype/StillImage" />
        <dc:title />
      </cc:Work>
    </rdf:RDF>
  </metadata>
  <g
     inkscape:label="Layer 1"
     inkscape:groupmode="layer"
     id="layer1"
     transform="translate(0,-292.76667)">
    <path
       style="fill:#ff4000;fill-opacity:0.99607843;stroke-width:0.68274987"
       id="path872"
       d="m 0.05287692,294.30067 c 0.05298623,-0.0766 0.0357908,-0.51587 0.10296452,-0.58281 0.0696366,-0.0708 0.29566873,-0.37961 0.37569948,-0.44075 0.10778322,-0.0829 0.16668939,0.091 0.28893107,0.0265 0.11025141,-0.0608 0.32048781,0.0759 0.44384251,0.0396 0.047209,-0.0146 0.084144,-0.0219 0.1320684,-0.033 0.096595,-0.0194 0.1924537,-0.0433 0.2902629,-0.0581 0.097503,-0.0121 0.1959904,0.002 0.2927061,0.0146 0.054939,0.0121 0.1154098,0.0146 0.1660674,0.0384 0.00628,0.002 0.096929,0.0822 0.1029262,0.0855 0.068407,0.0691 -0.00198,0.0958 0.031224,0.16408 0.1155823,0.0644 0.283338,-0.0299 0.3027011,-0.0321 0.2121969,-0.10428 0.2584743,0.27508 0.378651,0.29237 0,0 0.112851,0.0838 0.091311,0.14122 l 0.1072982,0.15799 c 0.082723,0.0868 0.1663386,0.1456 0.1663386,0.1456 0,0 0.3620905,-0.0817 0.6222152,0.27381 -0.018684,0.0219 0.075981,0.002 0.2157195,0.4272 -0.049005,0.24601 -0.2938512,0.63993 -0.3412918,0.68631 -0.2113451,0.22703 -0.6363835,0.50005 -0.6882436,0.54182 -0.047162,0.0358 -0.2910006,0.25505 -0.5708389,0.32665 -0.3397547,0.12057 -0.8226622,0.0963 -0.8226622,0.0963 -0.4643313,-0.0552 -0.9399877,-0.29643 -0.9399877,-0.29643 0,0 -0.39975696,-0.18181 -0.41674476,-0.27219 0,0 -0.0914151,-0.0969 -0.0889742,-0.41631 0.001971,-0.25795 0.1170973,-0.38892 0.16167617,-0.43999 0.0190392,-0.0219 0.33788347,-0.24476 0.35676698,-0.26667 0.12517863,-0.14414 0.50727941,-0.20807 0.50727941,-0.20807 v 0 l 0.3832511,-0.0171 c 0.453006,-0.29645 0.1755404,-0.5125 0.1755404,-0.5125 -0.067951,-0.20587 0.059145,-0.31934 0.059145,-0.31934 -0.1359009,-0.30147 -0.2507326,-0.21804 -0.2302225,-0.23093 -0.013314,-0.0712 -0.132123,-0.0386 -0.1518059,-0.10451 -0.014465,-0.0457 -0.3040947,-0.002 -0.3040947,-0.002 0,0 -0.076809,0.0688 -0.1371774,0.0581 0.058474,-0.11959 -0.1156755,-0.0146 -0.1156755,-0.0146 l 0.0537893,0.25747 c 0,0 -0.18245764,-0.0482 -0.23383583,-0.017 -0.13126568,-0.005 -0.19410018,-0.017 -0.26495302,0.0532 -0.0653767,0.0644 -0.21135042,0.14463 -0.25952893,0.2207 z"
       inkscape:connector-curvature="0"
       sodipodi:nodetypes="ccccccccccccccccccccccccsccccccccccccccccc" />
    <path
       style="fill:#ff642d;fill-opacity:0.99607843;stroke-width:0.75133246"
       id="path874"
       d="m 1.5108207,295.15255 c 0.274488,-0.46935 0.9876276,-0.48178 1.0284757,-0.49478 0.6782551,-0.0936 0.8505608,0.20199 0.875146,0.19397 0.048,0.14075 -0.043896,0.44223 -0.043896,0.44223 -0.054858,0.32158 -0.3428666,0.45724 -0.3428666,0.45724 -0.024117,0.007 -0.2858434,0.17453 -0.750856,0.14731 -0.041935,0.0121 -0.4542392,-0.0842 -0.6753809,-0.38907 0,0 -0.083764,-0.24113 -0.090622,-0.35678 z"
       inkscape:connector-curvature="0"
       sodipodi:nodetypes="cccccccc" />
    <path
       style="fill:#ffffff;fill-opacity:0.99607843;stroke-width:1.67134452"
       id="path876"
       d="m 2.1813544,295.6409 c -0.1563439,-0.13636 -0.1975602,-0.40283 -0.1921526,-0.43736 0.031853,-0.18971 0.1765616,-0.2987 0.1821282,-0.30939 0.1524834,-0.0679 0.4573722,-0.0703 0.4573722,-0.0703 0.1802043,0.0127 0.3950589,0.092 0.3950589,0.092 0.1524762,0.0417 0.2184438,0.2404 0.2184438,0.2404 -0.012657,0.0357 0.012925,0.32546 -0.3401568,0.49386 0,0 -0.3009336,0.11847 -0.7206898,-0.0127 z"
       inkscape:connector-curvature="0"
       sodipodi:nodetypes="cccccccc" />
  </g>
</svg>
